<svg width="108" height="108" viewBox="0 0 108 108" fill="none" xmlns="http://www.w3.org/2000/svg">
<rect width="108" height="108" fill="white"/>
<g clip-path="url(#clip0_12_537)">
<path d="M65.7375 41.9703L61.0797 37.3125H62.0938C63.0054 37.3125 63.8798 36.9503 64.5244 36.3057C65.1691 35.661 65.5312 34.7867 65.5312 33.875V30.4375C65.5312 29.5258 65.1691 28.6515 64.5244 28.0068C63.8798 27.3622 63.0054 27 62.0938 27H34.5938C33.6821 27 32.8077 27.3622 32.1631 28.0068C31.5184 28.6515 31.1562 29.5258 31.1562 30.4375V33.875C31.1562 34.7867 31.5184 35.661 32.1631 36.3057C32.8077 36.9503 33.6821 37.3125 34.5938 37.3125H35.6078L30.95 41.9703C29.9827 42.9364 29.4387 44.247 29.4375 45.6141V76.8438C29.4375 78.2113 29.9807 79.5228 30.9477 80.4898C31.9147 81.4568 33.2262 82 34.5938 82H58.6562C59.1121 82 59.5493 81.8189 59.8716 81.4966C60.1939 81.1743 60.375 80.7371 60.375 80.2812C60.375 79.8254 60.1939 79.3882 59.8716 79.0659C59.5493 78.7436 59.1121 78.5625 58.6562 78.5625H34.5938C34.1379 78.5625 33.7007 78.3814 33.3784 78.0591C33.0561 77.7368 32.875 77.2996 32.875 76.8438V73.4062H55.2188C55.6746 73.4062 56.1118 73.2252 56.4341 72.9028C56.7564 72.5805 56.9375 72.1433 56.9375 71.6875C56.9375 71.2317 56.7564 70.7945 56.4341 70.4722C56.1118 70.1498 55.6746 69.9688 55.2188 69.9688H32.875V49.3438H65.5312C65.9871 49.3438 66.4243 49.1627 66.7466 48.8403C67.0689 48.518 67.25 48.0808 67.25 47.625V45.6141C67.2488 44.247 66.7048 42.9364 65.7375 41.9703V41.9703ZM34.5938 30.4375H62.0938V33.875H34.5938V30.4375ZM63.8125 45.9062H32.875V45.6141C32.8737 45.3879 32.917 45.1636 33.0026 44.9542C33.0881 44.7448 33.2141 44.5543 33.3734 44.3937L40.4547 37.3125H56.2328L63.3141 44.3937C63.4734 44.5543 63.5994 44.7448 63.6849 44.9542C63.7705 45.1636 63.8138 45.3879 63.8125 45.6141V45.9062Z" fill="#2D527C"/>
<path d="M53.5 57.9375H50.0625V54.5C50.0625 54.0442 49.8814 53.607 49.5591 53.2847C49.2368 52.9623 48.7996 52.7812 48.3438 52.7812C47.8879 52.7812 47.4507 52.9623 47.1284 53.2847C46.8061 53.607 46.625 54.0442 46.625 54.5V57.9375H43.1875C42.7317 57.9375 42.2945 58.1186 41.9722 58.4409C41.6498 58.7632 41.4688 59.2004 41.4688 59.6562C41.4688 60.1121 41.6498 60.5493 41.9722 60.8716C42.2945 61.1939 42.7317 61.375 43.1875 61.375H46.625V64.8125C46.625 65.2683 46.8061 65.7055 47.1284 66.0278C47.4507 66.3502 47.8879 66.5312 48.3438 66.5312C48.7996 66.5312 49.2368 66.3502 49.5591 66.0278C49.8814 65.7055 50.0625 65.2683 50.0625 64.8125V61.375H53.5C53.9558 61.375 54.393 61.1939 54.7153 60.8716C55.0377 60.5493 55.2188 60.1121 55.2188 59.6562C55.2188 59.2004 55.0377 58.7632 54.7153 58.4409C54.393 58.1186 53.9558 57.9375 53.5 57.9375Z" fill="#77ACF1"/>
<path d="M75.8438 69.9688H62.0938C61.6379 69.9688 61.2007 69.7877 60.8784 69.4653C60.5561 69.143 60.375 68.7058 60.375 68.25C60.375 67.7942 60.5561 67.357 60.8784 67.0347C61.2007 66.7123 61.6379 66.5312 62.0938 66.5312H75.8438C76.2996 66.5312 76.7368 66.7123 77.0591 67.0347C77.3814 67.357 77.5625 67.7942 77.5625 68.25C77.5625 68.7058 77.3814 69.143 77.0591 69.4653C76.7368 69.7877 76.2996 69.9688 75.8438 69.9688Z" fill="#77ACF1"/>
<path d="M68.9688 82C66.6895 82 64.5037 81.0946 62.8921 79.4829C61.2804 77.8713 60.375 75.6855 60.375 73.4062V61.375C60.375 59.0958 61.2804 56.9099 62.8921 55.2983C64.5037 53.6867 66.6895 52.7812 68.9688 52.7812C71.248 52.7812 73.4338 53.6867 75.0454 55.2983C76.6571 56.9099 77.5625 59.0958 77.5625 61.375V73.4062C77.5625 75.6855 76.6571 77.8713 75.0454 79.4829C73.4338 81.0946 71.248 82 68.9688 82ZM68.9688 56.2188C67.6012 56.2188 66.2897 56.762 65.3227 57.729C64.3557 58.696 63.8125 60.0075 63.8125 61.375V73.4062C63.8125 74.7738 64.3557 76.0853 65.3227 77.0523C66.2897 78.0193 67.6012 78.5625 68.9688 78.5625C70.3363 78.5625 71.6478 78.0193 72.6148 77.0523C73.5818 76.0853 74.125 74.7738 74.125 73.4062V61.375C74.125 60.0075 73.5818 58.696 72.6148 57.729C71.6478 56.762 70.3363 56.2188 68.9688 56.2188V56.2188Z" fill="#2D527C"/>
</g>
<defs>
<clipPath id="clip0_12_537">
<rect width="55" height="55" fill="white" transform="translate(26 27)"/>
</clipPath>
</defs>
</svg>
